<svg width="29" height="19" viewBox="0 0 29 19" stroke="currentColor" fill="none" xmlns="http://www.w3.org/2000/svg">
<path d="M1.87915 17.1226H16.9421" stroke-width="2" stroke-linecap="round"/>
<path fill-rule="evenodd" clip-rule="evenodd" d="M27.3229 0C27.6609 0 27.9349 0.273787 27.9349 0.611521C27.9349 0.949254 27.6609 1.22304 27.3229 1.22304H7.01749C6.00351 1.22304 5.18151 2.0444 5.18151 3.0576V17.0958C5.18151 17.4335 4.90751 17.7073 4.56951 17.7073C4.23152 17.7073 3.95752 17.4335 3.95752 17.0958V3.0576C3.95752 1.36894 5.32752 0 7.01749 0H27.3229Z" fill="currentColor"/>
<path d="M21.1776 4.28052H27.1644C27.8399 4.28052 28.3884 4.82854 28.3884 5.50356V16.5109C28.3884 17.1859 27.8399 17.734 27.1644 17.734H21.1776C20.5021 17.734 19.9536 17.1859 19.9536 16.5109V5.50356C19.9536 4.82854 20.5021 4.28052 21.1776 4.28052V4.28052Z" stroke-width="2" stroke-linecap="round"/>
<path d="M24.1713 16.5109C24.5039 16.5109 24.7735 16.2371 24.7735 15.8994C24.7735 15.5616 24.5039 15.2878 24.1713 15.2878C23.8387 15.2878 23.5691 15.5616 23.5691 15.8994C23.5691 16.2371 23.8387 16.5109 24.1713 16.5109Z" fill="currentColor"/>
</svg>
