<svg width="24" height="24" viewBox="0 0 24 24" fill="none" xmlns="http://www.w3.org/2000/svg">
<path d="M18.871 21.2903C18.6572 21.2903 18.4839 21.4636 18.4839 21.6774V23.2258H3.77419V0.774194H14.6129V4.25806C14.6129 4.47184 14.7862 4.64516 15 4.64516H18.4839V11.2258C18.4839 11.4396 18.6572 11.6129 18.871 11.6129C19.0847 11.6129 19.2581 11.4396 19.2581 11.2258V4.27742C19.2572 4.26663 19.2558 4.25594 19.2538 4.24529C19.2521 4.1476 19.213 4.05421 19.1446 3.98439L15.2783 0.113419C15.2677 0.105629 15.2567 0.098371 15.2454 0.0917419C15.2209 0.0704516 15.1937 0.0524516 15.1645 0.0383226C15.1511 0.0326613 15.1374 0.0277742 15.1235 0.0236129C15.0913 0.0124355 15.0577 0.00580645 15.0236 0.00387097C15.0155 0.00425806 15.0081 0 15 0H3.3871C3.17332 0 3 0.173323 3 0.387097V23.6129C3 23.8267 3.17332 24 3.3871 24H18.871C19.0847 24 19.2581 23.8267 19.2581 23.6129V21.6774C19.2581 21.4636 19.0847 21.2903 18.871 21.2903ZM15.3871 1.32194L17.921 3.87097H15.3871V1.32194Z" fill="currentColor"/>
<path d="M20.8065 12.3872H10.3549C10.1411 12.3872 9.96777 12.5605 9.96777 12.7743V20.1291C9.96777 20.3429 10.1411 20.5162 10.3549 20.5162H20.8065C21.0203 20.5162 21.1936 20.3429 21.1936 20.1291V12.7743C21.1936 12.5605 21.0203 12.3872 20.8065 12.3872ZM20.4194 19.742H10.742V13.1614H20.4194V19.742Z" fill="currentColor"/>
<path d="M14.4863 17.0527C14.4642 17.3587 14.3509 17.5996 14.1465 17.7754C13.9434 17.9512 13.6751 18.0391 13.3418 18.0391C12.9772 18.0391 12.6901 17.9167 12.4805 17.6719C12.2721 17.4258 12.168 17.0885 12.168 16.6602V16.4863C12.168 16.2129 12.2161 15.972 12.3125 15.7637C12.4089 15.5553 12.5462 15.3958 12.7246 15.2852C12.9043 15.1732 13.1126 15.1172 13.3496 15.1172C13.6777 15.1172 13.9421 15.2051 14.1426 15.3809C14.3431 15.5566 14.459 15.8034 14.4902 16.1211H13.9043C13.89 15.9375 13.8385 15.8047 13.75 15.7227C13.6628 15.6393 13.5293 15.5977 13.3496 15.5977C13.1543 15.5977 13.0078 15.668 12.9102 15.8086C12.8138 15.9479 12.7643 16.1647 12.7617 16.459V16.6738C12.7617 16.9811 12.8079 17.2057 12.9004 17.3477C12.9941 17.4896 13.1413 17.5605 13.3418 17.5605C13.5228 17.5605 13.6576 17.5195 13.7461 17.4375C13.8359 17.3542 13.8874 17.2259 13.9004 17.0527H14.4863ZM16.3457 17.2539C16.3457 17.1432 16.3066 17.0586 16.2285 17C16.1504 16.9401 16.0098 16.8776 15.8066 16.8125C15.6035 16.7461 15.4427 16.681 15.3242 16.6172C15.0013 16.4427 14.8398 16.2077 14.8398 15.9121C14.8398 15.7585 14.8828 15.6217 14.9688 15.502C15.056 15.3809 15.1803 15.2865 15.3418 15.2188C15.5046 15.151 15.6868 15.1172 15.8887 15.1172C16.0918 15.1172 16.2728 15.1543 16.4316 15.2285C16.5905 15.3014 16.7135 15.4049 16.8008 15.5391C16.8893 15.6732 16.9336 15.8255 16.9336 15.9961H16.3477C16.3477 15.8659 16.3066 15.765 16.2246 15.6934C16.1426 15.6204 16.0273 15.584 15.8789 15.584C15.7357 15.584 15.6243 15.6146 15.5449 15.6758C15.4655 15.7357 15.4258 15.8151 15.4258 15.9141C15.4258 16.0065 15.472 16.084 15.5645 16.1465C15.6582 16.209 15.7956 16.2676 15.9766 16.3223C16.3099 16.4225 16.5527 16.5469 16.7051 16.6953C16.8574 16.8438 16.9336 17.0286 16.9336 17.25C16.9336 17.4961 16.8405 17.6895 16.6543 17.8301C16.4681 17.9694 16.2174 18.0391 15.9023 18.0391C15.6836 18.0391 15.4844 17.9993 15.3047 17.9199C15.125 17.8392 14.9876 17.7292 14.8926 17.5898C14.7988 17.4505 14.752 17.2891 14.752 17.1055H15.3398C15.3398 17.4193 15.5273 17.5762 15.9023 17.5762C16.0417 17.5762 16.1504 17.5482 16.2285 17.4922C16.3066 17.4349 16.3457 17.3555 16.3457 17.2539ZM18.3828 17.2949L19.0273 15.1562H19.6797L18.6895 18H18.0781L17.0918 15.1562H17.7422L18.3828 17.2949Z" fill="currentColor"/>
</svg>
