<svg width="130" height="128" viewBox="0 0 130 128" fill="none" xmlns="http://www.w3.org/2000/svg">
<path d="M86.286 98.4487L93.6416 112.369L64.9998 116.506L36.3467 112.39L43.7813 98.4487H86.286Z" fill="#0D548F"/>
<path d="M130 11.4246V89.4821C130 95.2602 125.315 99.9449 119.537 99.9449H10.4628C4.68471 99.9449 0 95.2602 0 89.4821V11.6861C0 5.76421 4.80241 0.961792 10.7243 0.961792H119.537C125.315 0.961792 130 5.6465 130 11.4246Z" fill="#1F8EFA"/>
<path d="M14.3863 99.9449H10.4628C4.68471 99.9449 0 95.2602 0 89.4821V11.6861C0 5.76421 4.80241 0.961792 10.7243 0.961792H14.6479C8.72596 0.961792 3.92354 5.76421 3.92354 11.6861V89.4821C3.92354 95.2602 8.60825 99.9449 14.3863 99.9449Z" fill="#0D548F"/>
<path d="M116.79 92.0978H13.2089C10.3196 92.0978 7.97754 89.7557 7.97754 86.8664V14.1501C7.97754 11.2608 10.3196 8.9187 13.2089 8.9187H116.79C119.68 8.9187 122.022 11.2608 122.022 14.1501V86.8664C122.022 89.7557 119.68 92.0978 116.79 92.0978Z" fill="#F5F5F5"/>
<path d="M122.022 14.1501V86.8664C122.022 89.7567 119.681 92.0978 116.79 92.0978H13.2089C10.3186 92.0978 7.97754 89.7567 7.97754 86.8664V14.1501C7.97754 11.2597 10.3186 8.9187 13.2089 8.9187H116.79C119.681 8.9187 122.022 11.2597 122.022 14.1501Z" fill="#F5F5F5"/>
<path d="M102.535 123.376H30.865C27.8313 123.376 25.3721 120.917 25.3721 117.883C25.3721 114.85 27.8313 112.39 30.865 112.39H102.535V123.376Z" fill="#1F8EFA"/>
<path d="M81.873 93.4877H90.536V123.376H81.873V93.4877Z" fill="#0D548F"/>
<path d="M37.1427 123.376H30.865C27.8308 123.376 25.3721 120.917 25.3721 117.883C25.3721 116.366 25.9868 114.993 26.9807 113.999C27.9747 113.005 29.3479 112.39 30.865 112.39H37.1427C35.6256 112.39 34.2523 113.005 33.2584 113.999C32.2644 114.993 31.6497 116.366 31.6497 117.883C31.6497 120.917 34.1085 123.376 37.1427 123.376Z" fill="#0D548F"/>
<path d="M102.404 54.7185H27.5956C24.7064 54.7185 22.3643 52.3764 22.3643 49.4871V35.3624C22.3643 32.4731 24.7064 30.131 27.5956 30.131H102.404C105.294 30.131 107.636 32.4731 107.636 35.3624V49.4871C107.636 52.3764 105.294 54.7185 102.404 54.7185Z" fill="#2EDFFC"/>
<path d="M31.5192 54.7197H27.5956C24.7053 54.7197 22.3643 52.3761 22.3643 49.4883V35.3636C22.3643 32.4732 24.7053 30.1322 27.5956 30.1322H31.5192C28.6288 30.1322 26.2878 32.4732 26.2878 35.3636V49.4883C26.2878 52.3761 28.6288 54.7197 31.5192 54.7197Z" fill="#27BDF3"/>
<path d="M41.7638 43.2189L40.2439 42.3251L42.0053 41.3267C42.948 40.7926 43.2788 39.5954 42.7447 38.6527C42.2103 37.71 41.0129 37.3791 40.0707 37.9135L38.2847 38.9258V37.0626C38.2847 35.9789 37.4064 35.1008 36.3229 35.1008C35.2395 35.1008 34.3612 35.9789 34.3612 37.0626V38.8661L32.644 37.8565C31.7104 37.3074 30.5077 37.6192 29.9584 38.553C29.4094 39.4871 29.7212 40.6895 30.6553 41.2386L32.3976 42.2629L30.8669 43.1305C29.9242 43.6646 29.5933 44.8618 30.1274 45.8045C30.4886 46.4417 31.1525 46.7993 31.836 46.7993C32.1637 46.7993 32.4962 46.7171 32.8014 46.5437L34.3609 45.6596V47.7869C34.3609 48.8706 35.2393 49.7487 36.3227 49.7487C37.4061 49.7487 38.2844 48.8706 38.2844 47.7869V45.7242L39.7751 46.6007C40.0874 46.7843 40.4296 46.8717 40.7675 46.8717C41.44 46.8717 42.095 46.5257 42.4604 45.9042C43.01 44.9701 42.6979 43.7677 41.7638 43.2189Z" fill="#0D548F"/>
<path d="M60.5968 43.2189L59.0769 42.3251L60.8383 41.3267C61.781 40.7926 62.1119 39.5954 61.5777 38.6527C61.0433 37.71 59.8456 37.3791 58.9037 37.9135L57.1177 38.9258V37.0626C57.1177 35.9789 56.2394 35.1008 55.1559 35.1008C54.0725 35.1008 53.1942 35.9789 53.1942 37.0626V38.8661L51.477 37.8565C50.5432 37.3074 49.3407 37.6192 48.7914 38.553C48.2424 39.4871 48.5542 40.6895 49.4883 41.2386L51.2306 42.2629L49.6999 43.1305C48.7572 43.6646 48.4263 44.8618 48.9604 45.8045C49.3216 46.4417 49.9855 46.7993 50.669 46.7993C50.9967 46.7993 51.3292 46.7171 51.6344 46.5437L53.1939 45.6596V47.7869C53.1939 48.8706 54.0723 49.7487 55.1557 49.7487C56.2391 49.7487 57.1175 48.8706 57.1175 47.7869V45.7242L58.6081 46.6007C58.9204 46.7843 59.2626 46.8717 59.6005 46.8717C60.273 46.8717 60.928 46.5257 61.2934 45.9042C61.843 44.9701 61.5309 43.7677 60.5968 43.2189Z" fill="#0D548F"/>
<path d="M79.4299 43.2189L77.9099 42.3251L79.6713 41.3267C80.614 40.7926 80.9449 39.5954 80.4108 38.6527C79.8766 37.71 78.6789 37.3791 77.7367 37.9135L75.9507 38.9258V37.0626C75.9507 35.9789 75.0724 35.1008 73.989 35.1008C72.9055 35.1008 72.0272 35.9789 72.0272 37.0626V38.8661L70.31 37.8565C69.3764 37.3074 68.1737 37.6192 67.6244 38.553C67.0754 39.4871 67.3872 40.6895 68.3213 41.2386L70.0636 42.2629L68.5329 43.1305C67.5902 43.6646 67.2593 44.8618 67.7934 45.8045C68.1546 46.4417 68.8185 46.7993 69.502 46.7993C69.8297 46.7993 70.1622 46.7171 70.4675 46.5437L72.0269 45.6596V47.7869C72.0269 48.8706 72.9053 49.7487 73.9887 49.7487C75.0721 49.7487 75.9505 48.8706 75.9505 47.7869V45.7242L77.4412 46.6007C77.7535 46.7843 78.0956 46.8717 78.4336 46.8717C79.106 46.8717 79.761 46.5257 80.1264 45.9042C80.676 44.9701 80.3639 43.7677 79.4299 43.2189Z" fill="#0D548F"/>
<path d="M97.5653 49.6181H87.3641C86.2807 49.6181 85.4023 48.74 85.4023 47.6564C85.4023 46.5727 86.2807 45.6946 87.3641 45.6946H97.5653C98.6488 45.6946 99.5271 46.5727 99.5271 47.6564C99.5271 48.74 98.6488 49.6181 97.5653 49.6181Z" fill="#0D548F"/>
<path d="M120.128 82.391H117.837V77.0785C117.837 73.2491 116.286 69.786 113.777 67.2749C112.223 65.7222 110.304 64.5378 108.159 63.8596V63.2153H103.974C96.3173 63.2153 90.1105 69.4221 90.1105 77.0785V82.391H89.7182C85.3842 82.391 81.8711 85.9041 81.8711 90.2381V92.0978H116.791C119.68 92.0978 122.022 89.7557 122.022 86.8664V82.731C121.431 82.5113 120.793 82.391 120.128 82.391ZM97.9576 77.0785C97.9576 73.6841 100.785 70.9366 104.207 71.0669C107.462 71.1908 109.99 73.9692 109.99 77.2266V82.391H97.9576V77.0785Z" fill="#E6E6E6"/>
<path d="M122.022 77.0785V86.8377L117.897 89.4534L114.175 86.8377V77.0785C114.175 73.7618 111.476 71.0624 108.159 71.0624C104.842 71.0624 102.143 73.7618 102.143 77.0785V86.8377L98.0416 89.4534L94.2959 86.8377V77.0785C94.2959 69.4224 100.503 63.2153 108.159 63.2153C111.988 63.2153 115.452 64.7664 117.963 67.2749C120.471 69.786 122.022 73.2491 122.022 77.0785Z" fill="#80C0FE"/>
<path d="M97.9579 77.0785V86.8377L99.9563 88.2318L98.0416 89.4534L94.2959 86.8377V77.0785C94.2959 69.4224 100.503 63.2153 108.159 63.2153C108.779 63.2153 109.391 63.2572 109.99 63.3357C103.2 64.2302 97.9579 70.0423 97.9579 77.0785Z" fill="#5CAFFF"/>
<path d="M119.823 88.2317L117.898 89.4532L114.175 86.8375V77.0784C114.175 74.3999 112.415 72.1242 109.99 71.35C110.568 71.1617 111.183 71.0623 111.821 71.0623C115.138 71.0623 117.837 73.7617 117.837 77.0784V86.8375L119.823 88.2317Z" fill="#5CAFFF"/>
<path d="M130 84.0206V89.4821C130 95.2602 125.315 99.9449 119.537 99.9449L84.9961 100.73L81.8711 99.9449L81.8737 92.0978H116.791C119.681 92.0978 122.022 89.7568 122.022 86.8664V82.391H124.575C126.576 82.391 128.441 82.99 130 84.0206Z" fill="#0D548F"/>
<path d="M81.873 99.9449H90.536V112.39H81.873V99.9449Z" fill="#225272"/>
<path fill-rule="evenodd" clip-rule="evenodd" d="M129.999 92.2626V121.613C129.999 124.608 127.57 127.038 124.575 127.038H91.7423C88.7474 127.038 86.3174 124.608 86.3174 121.613V92.2626C86.3174 89.2676 88.7474 86.8376 91.7423 86.8376H124.575C127.57 86.8376 129.999 89.2676 129.999 92.2626Z" fill="#AAD2F8"/>
<path d="M95.6659 127.038H91.7423C88.7474 127.038 86.3174 124.608 86.3174 121.613V92.2626C86.3174 89.2676 88.7474 86.8376 91.7423 86.8376H95.6659C92.6709 86.8376 90.2409 89.2676 90.2409 92.2626V121.613C90.2409 124.608 92.6709 127.038 95.6659 127.038Z" fill="#80C0FE"/>
<path d="M113.129 104.282C113.129 101.537 110.904 99.3118 108.159 99.3118C105.415 99.3118 103.189 101.537 103.189 104.282C103.189 106.329 104.429 108.087 106.198 108.848V114.393C106.198 115.477 107.076 116.355 108.159 116.355C109.243 116.355 110.121 115.477 110.121 114.393V108.848C111.89 108.087 113.129 106.329 113.129 104.282Z" fill="#5CAFFF"/>
</svg>
