<svg width="24" height="24" viewBox="0 0 24 24" fill="none" xmlns="http://www.w3.org/2000/svg">
<path d="M18.871 21.2903C18.6572 21.2903 18.4839 21.4636 18.4839 21.6774V23.2258H3.77419V0.774194H14.6129V4.25806C14.6129 4.47184 14.7862 4.64516 15 4.64516H18.4839V11.2258C18.4839 11.4396 18.6572 11.6129 18.871 11.6129C19.0847 11.6129 19.2581 11.4396 19.2581 11.2258V4.27742C19.2572 4.26663 19.2558 4.25594 19.2538 4.24529C19.2521 4.1476 19.213 4.05421 19.1446 3.98439L15.2783 0.113419C15.2677 0.105629 15.2567 0.098371 15.2454 0.0917419C15.2209 0.0704516 15.1937 0.0524516 15.1645 0.0383226C15.1511 0.0326613 15.1374 0.0277742 15.1235 0.0236129C15.0913 0.0124355 15.0577 0.00580645 15.0236 0.00387097C15.0155 0.00425806 15.0081 0 15 0H3.3871C3.17332 0 3 0.173323 3 0.387097V23.6129C3 23.8267 3.17332 24 3.3871 24H18.871C19.0847 24 19.2581 23.8267 19.2581 23.6129V21.6774C19.2581 21.4636 19.0847 21.2903 18.871 21.2903ZM15.3871 1.32194L17.921 3.87097H15.3871V1.32194Z" fill="currentColor" />
<path d="M20.8065 12.3872H10.3549C10.1411 12.3872 9.96777 12.5605 9.96777 12.7743V20.1291C9.96777 20.3429 10.1411 20.5162 10.3549 20.5162H20.8065C21.0203 20.5162 21.1936 20.3429 21.1936 20.1291V12.7743C21.1936 12.5605 21.0203 12.3872 20.8065 12.3872ZM20.4194 19.742H10.742V13.1614H20.4194V19.742Z" fill="currentColor"/>
<path d="M12.8398 16.998V18H12.2539V15.1562H13.3633C13.5768 15.1562 13.7643 15.1953 13.9258 15.2734C14.0885 15.3516 14.2135 15.4629 14.3008 15.6074C14.388 15.7507 14.4316 15.9141 14.4316 16.0977C14.4316 16.3763 14.3359 16.5964 14.1445 16.7578C13.9544 16.918 13.6908 16.998 13.3535 16.998H12.8398ZM12.8398 16.5234H13.3633C13.5182 16.5234 13.6361 16.487 13.7168 16.4141C13.7988 16.3411 13.8398 16.237 13.8398 16.1016C13.8398 15.9622 13.7988 15.8496 13.7168 15.7637C13.6348 15.6777 13.5215 15.6335 13.377 15.6309H12.8398V16.5234ZM14.8359 18V15.1562H15.7109C15.9609 15.1562 16.1842 15.2129 16.3809 15.3262C16.5788 15.4382 16.7331 15.5983 16.8438 15.8066C16.9544 16.0137 17.0098 16.2493 17.0098 16.5137V16.6445C17.0098 16.9089 16.9551 17.1439 16.8457 17.3496C16.7376 17.5553 16.5846 17.7148 16.3867 17.8281C16.1888 17.9414 15.9655 17.9987 15.7168 18H14.8359ZM15.4219 15.6309V17.5293H15.7051C15.9342 17.5293 16.1094 17.4544 16.2305 17.3047C16.3516 17.1549 16.4134 16.9408 16.416 16.6621V16.5117C16.416 16.2227 16.3561 16.0039 16.2363 15.8555C16.1165 15.7057 15.9414 15.6309 15.7109 15.6309H15.4219ZM19.1484 16.8379H18.0234V18H17.4375V15.1562H19.2891V15.6309H18.0234V16.3652H19.1484V16.8379Z" fill="currentColor" />
</svg>
