<svg width="28" height="28" viewBox="0 0 28 28"  stroke="currentColor" fill="none" xmlns="http://www.w3.org/2000/svg">
<path d="M23.2012 15.6962C23.2507 15.2954 23.2879 14.8947 23.2879 14.4689C23.2879 14.0432 23.2507 13.6424 23.2012 13.2417L25.8134 11.1754C26.0486 10.9876 26.1105 10.6495 25.962 10.374L23.486 6.04111C23.3374 5.76561 23.0031 5.66543 22.7308 5.76561L19.6482 7.01789C19.0044 6.51698 18.3111 6.10373 17.556 5.79066L17.0855 2.47212C17.0484 2.17158 16.7884 1.94617 16.4789 1.94617H11.5269C11.2174 1.94617 10.9574 2.17158 10.9203 2.47212L10.4498 5.79066C9.69467 6.10373 9.00139 6.5295 8.35763 7.01789L5.27501 5.76561C4.99028 5.65291 4.6684 5.76561 4.51984 6.04111L2.04384 10.374C1.8829 10.6495 1.95718 10.9876 2.1924 11.1754L4.80458 13.2417C4.75506 13.6424 4.71792 14.0557 4.71792 14.4689C4.71792 14.8822 4.75506 15.2954 4.80458 15.6962L2.1924 17.7624C1.95718 17.9503 1.89528 18.2884 2.04384 18.5639L4.51984 22.8968C4.6684 23.1723 5.00266 23.2724 5.27501 23.1723L8.35763 21.92C9.00139 22.4209 9.69467 22.8341 10.4498 23.1472L10.9203 26.4658C10.9574 26.7663 11.2174 26.9917 11.5269 26.9917H16.4789C16.7884 26.9917 17.0484 26.7663 17.0855 26.4658L17.556 23.1472C18.3111 22.8341 19.0044 22.4084 19.6482 21.92L22.7308 23.1723C23.0155 23.285 23.3374 23.1723 23.486 22.8968L25.962 18.5639C26.1105 18.2884 26.0486 17.9503 25.8134 17.7624L23.2012 15.6962V15.6962Z" stroke-width="2" stroke-linecap="round"/>
<path d="M18.4044 14.4688C18.4044 16.8481 16.43 18.7836 14.003 18.7836C11.5759 18.7836 9.60156 16.8481 9.60156 14.4688C9.60156 12.0894 11.5759 10.1539 14.003 10.1539" stroke-width="2" stroke-linecap="round"/>
</svg>
