<svg width="27" height="27" viewBox="0 0 27 27" stroke="none" fill="currentColor" xmlns="http://www.w3.org/2000/svg">
<path d="M25.7449 21.8789H23.1668V19.3008C23.1668 19.159 23.0508 19.043 22.909 19.043H21.3621C21.2203 19.043 21.1043 19.159 21.1043 19.3008V21.8789H18.5262C18.3844 21.8789 18.2683 21.9949 18.2683 22.1367V23.6836C18.2683 23.8254 18.3844 23.9414 18.5262 23.9414H21.1043V26.5195C21.1043 26.6613 21.2203 26.7773 21.3621 26.7773H22.909C23.0508 26.7773 23.1668 26.6613 23.1668 26.5195V23.9414H25.7449C25.8867 23.9414 26.0027 23.8254 26.0027 23.6836V22.1367C26.0027 21.9949 25.8867 21.8789 25.7449 21.8789ZM9.03543 13.0617C9.00643 12.7814 8.99031 12.4978 8.99031 12.2109C8.99031 11.6985 9.03865 11.199 9.12889 10.7124C9.15145 10.5964 9.09022 10.4772 8.98387 10.4288C8.54559 10.2322 8.14276 9.96153 7.79471 9.61993C7.38459 9.22228 7.06187 8.7435 6.84714 8.21416C6.6324 7.68481 6.53036 7.11651 6.54754 6.54552C6.57654 5.51105 6.99227 4.52814 7.71736 3.78693C8.51336 2.9716 9.58328 2.52688 10.7209 2.53977C11.7489 2.54943 12.7415 2.94582 13.4924 3.64836C13.747 3.88683 13.9661 4.15109 14.1498 4.43468C14.2142 4.53459 14.3399 4.57648 14.4495 4.53781C15.0167 4.34123 15.6161 4.20265 16.2316 4.1382C16.4121 4.11887 16.5152 3.92551 16.4346 3.76437C15.3873 1.69221 13.2474 0.261352 10.7724 0.22268C7.20174 0.167895 4.22401 3.09728 4.22401 6.66798C4.22401 8.69181 5.15535 10.4965 6.61522 11.6792C5.59041 12.1529 4.64617 12.8071 3.82762 13.6257C2.0616 15.3885 1.06258 17.7152 0.998127 20.1999C0.997267 20.2343 1.0033 20.2685 1.01587 20.3005C1.02844 20.3326 1.0473 20.3617 1.07132 20.3864C1.09535 20.411 1.12406 20.4306 1.15577 20.4439C1.18747 20.4573 1.22153 20.4642 1.25594 20.4641H3.06385C3.20242 20.4641 3.31844 20.3546 3.32166 20.216C3.38289 18.3469 4.14022 16.597 5.47117 15.2692C6.41863 14.3218 7.57879 13.6644 8.84529 13.3453C8.96776 13.3099 9.05154 13.1906 9.03543 13.0617ZM23.5535 12.2109C23.5535 8.68536 20.7208 5.82043 17.2081 5.76564C13.6374 5.71086 10.6629 8.64024 10.6629 12.2109C10.6629 14.2348 11.5974 16.0395 13.0541 17.2222C12.0187 17.7021 11.0761 18.3611 10.2697 19.1686C8.50369 20.9314 7.50467 23.2582 7.44022 25.7396C7.43936 25.774 7.44539 25.8082 7.45796 25.8403C7.47053 25.8723 7.48938 25.9015 7.51341 25.9261C7.53744 25.9507 7.56615 25.9703 7.59786 25.9837C7.62956 25.997 7.66362 26.0039 7.69803 26.0039H9.50272C9.64129 26.0039 9.75731 25.8943 9.76053 25.7557C9.82176 23.8866 10.5791 22.1367 11.91 20.809C13.299 19.42 15.1424 18.6562 17.1082 18.6562C20.666 18.6562 23.5535 15.772 23.5535 12.2109ZM20.0247 15.1274C19.2448 15.9073 18.2103 16.3359 17.1082 16.3359C16.006 16.3359 14.9716 15.9073 14.1917 15.1274C13.8025 14.7403 13.495 14.279 13.2874 13.7708C13.0798 13.2626 12.9764 12.7179 12.9832 12.169C12.9929 11.112 13.415 10.0904 14.153 9.33311C14.9264 8.54034 15.9609 8.09884 17.0663 8.08595C18.1588 8.07628 19.219 8.50167 19.9989 9.26544C20.7981 10.0485 21.2364 11.0959 21.2364 12.2109C21.2332 13.3131 20.8046 14.3476 20.0247 15.1274Z"/>
</svg>
