<svg width="24" height="24" viewBox="0 0 24 24" fill="none" xmlns="http://www.w3.org/2000/svg">
<path d="M18.871 21.2903C18.6572 21.2903 18.4839 21.4636 18.4839 21.6774V23.2258H3.77419V0.774194H14.6129V4.25806C14.6129 4.47184 14.7862 4.64516 15 4.64516H18.4839V11.2258C18.4839 11.4396 18.6572 11.6129 18.871 11.6129C19.0847 11.6129 19.2581 11.4396 19.2581 11.2258V4.27742C19.2572 4.26663 19.2558 4.25594 19.2538 4.24529C19.2521 4.1476 19.213 4.05421 19.1446 3.98439L15.2783 0.113419C15.2677 0.105629 15.2567 0.098371 15.2454 0.0917419C15.2209 0.0704516 15.1937 0.0524516 15.1645 0.0383226C15.1511 0.0326613 15.1374 0.0277742 15.1235 0.0236129C15.0913 0.0124355 15.0577 0.00580645 15.0236 0.00387097C15.0155 0.00425806 15.0081 0 15 0H3.3871C3.17332 0 3 0.173323 3 0.387097V23.6129C3 23.8267 3.17332 24 3.3871 24H18.871C19.0847 24 19.2581 23.8267 19.2581 23.6129V21.6774C19.2581 21.4636 19.0847 21.2903 18.871 21.2903ZM15.3871 1.32194L17.921 3.87097H15.3871V1.32194Z" fill="currentColor" />
<path d="M20.8065 12.3872H10.3549C10.1411 12.3872 9.96777 12.5605 9.96777 12.7743V20.1291C9.96777 20.3429 10.1411 20.5162 10.3549 20.5162H20.8065C21.0203 20.5162 21.1936 20.3429 21.1936 20.1291V12.7743C21.1936 12.5605 21.0203 12.3872 20.8065 12.3872ZM20.4194 19.742H10.742V13.1614H20.4194V19.742Z" fill="currentColor" />
<path d="M13.2715 16.1367L13.8047 15.1562H14.4785L13.6504 16.5664L14.5 18H13.8184L13.2715 17.0039L12.7246 18H12.043L12.8926 16.5664L12.0645 15.1562H12.7383L13.2715 16.1367ZM15.3828 17.5293H16.627V18H14.7969V15.1562H15.3828V17.5293ZM18.4395 17.2539C18.4395 17.1432 18.4004 17.0586 18.3223 17C18.2441 16.9401 18.1035 16.8776 17.9004 16.8125C17.6973 16.7461 17.5365 16.681 17.418 16.6172C17.0951 16.4427 16.9336 16.2077 16.9336 15.9121C16.9336 15.7585 16.9766 15.6217 17.0625 15.502C17.1497 15.3809 17.2741 15.2865 17.4355 15.2188C17.5983 15.151 17.7806 15.1172 17.9824 15.1172C18.1855 15.1172 18.3665 15.1543 18.5254 15.2285C18.6842 15.3014 18.8073 15.4049 18.8945 15.5391C18.9831 15.6732 19.0273 15.8255 19.0273 15.9961H18.4414C18.4414 15.8659 18.4004 15.765 18.3184 15.6934C18.2363 15.6204 18.1211 15.584 17.9727 15.584C17.8294 15.584 17.7181 15.6146 17.6387 15.6758C17.5592 15.7357 17.5195 15.8151 17.5195 15.9141C17.5195 16.0065 17.5658 16.084 17.6582 16.1465C17.752 16.209 17.8893 16.2676 18.0703 16.3223C18.4036 16.4225 18.6465 16.5469 18.7988 16.6953C18.9512 16.8438 19.0273 17.0286 19.0273 17.25C19.0273 17.4961 18.9342 17.6895 18.748 17.8301C18.5618 17.9694 18.3112 18.0391 17.9961 18.0391C17.7773 18.0391 17.5781 17.9993 17.3984 17.9199C17.2188 17.8392 17.0814 17.7292 16.9863 17.5898C16.8926 17.4505 16.8457 17.2891 16.8457 17.1055H17.4336C17.4336 17.4193 17.6211 17.5762 17.9961 17.5762C18.1354 17.5762 18.2441 17.5482 18.3223 17.4922C18.4004 17.4349 18.4395 17.3555 18.4395 17.2539Z" fill="currentColor" />
</svg>
